<svg width="346" height="282" viewBox="0 0 346 282" fill="none" xmlns="http://www.w3.org/2000/svg">
<mask id="mask0_2052_252" style="mask-type:luminance" maskUnits="userSpaceOnUse" x="129" y="0" width="82" height="42">
<path d="M129.667 0.895752H211V41.9999H129.667V0.895752Z" fill="white"/>
</mask>
<g mask="url(#mask0_2052_252)">
<path fill-rule="evenodd" clip-rule="evenodd" d="M210.781 41.9009H201.958C201.896 24.453 187.724 10.3228 170.26 10.3228C152.812 10.3228 138.656 24.4165 138.568 41.8436H129.812C129.797 41.1665 129.786 40.4998 129.797 39.8332C130.927 18.4686 148.615 1.49463 170.26 1.49463C191.943 1.49463 209.646 18.5207 210.729 39.9269C210.74 40.1248 210.75 40.328 210.75 40.5259C210.76 40.8905 210.771 41.255 210.776 41.6196C210.781 41.7134 210.781 41.8123 210.781 41.9009Z" fill="black"/>
</g>
<mask id="mask1_2052_252" style="mask-type:luminance" maskUnits="userSpaceOnUse" x="101" y="47" width="155" height="147">
<path d="M101.667 47.3333H255.635V193.896H101.667V47.3333Z" fill="white"/>
</mask>
<g mask="url(#mask1_2052_252)">
<path fill-rule="evenodd" clip-rule="evenodd" d="M255.927 170.609C254.75 159.271 253.651 147.922 252.49 136.578C251.891 130.688 251.271 124.786 250.656 118.891C250.135 113.865 249.609 108.844 249.094 103.823C248.063 93.7865 247.063 83.7552 246.031 73.7188C245.563 69.1667 245.052 64.6146 244.536 59.9167H233.365C232.938 56.0573 232.536 52.3385 232.115 48.5312H112.391C109.125 96.8646 105.859 145.135 102.594 193.469H237.849L235.203 126.646H238.635C240.396 146.615 242.156 166.464 243.948 186.74C247.854 182.083 251.427 177.771 255.089 173.526C255.87 172.609 256.052 171.755 255.927 170.609ZM114.25 186.12L117.594 99.0729L125.599 176.115L190.234 186.12H114.25Z" fill="black"/>
</g>
<mask id="mask2_2052_252" style="mask-type:luminance" maskUnits="userSpaceOnUse" x="83" y="59" width="23" height="129">
<path d="M83.6354 59.3333H105.667V187.333H83.6354V59.3333Z" fill="white"/>
</mask>
<g mask="url(#mask2_2052_252)">
<path fill-rule="evenodd" clip-rule="evenodd" d="M105.224 59.9219C102.286 102.312 99.3645 144.474 96.4062 187.193C94.4635 184.984 92.8697 183.219 91.3228 181.417C89.9218 179.792 88.5833 178.109 87.1926 176.469C83.526 172.161 83.5833 172.167 84.1614 166.589C85.4843 153.641 86.7447 140.698 88.026 127.75C89.5364 112.49 91.052 97.2292 92.5468 81.9687C93.2083 75.2031 93.8645 68.4323 94.4322 61.651C94.552 60.276 94.9791 59.8333 96.3697 59.8854C99.2239 59.9948 102.078 59.9219 105.224 59.9219Z" fill="black"/>
</g>
<mask id="mask3_2052_252" style="mask-type:luminance" maskUnits="userSpaceOnUse" x="129" y="0" width="82" height="44">
<path d="M129.667 0.895752H211V43.3333H129.667V0.895752Z" fill="white"/>
</mask>
<g mask="url(#mask3_2052_252)">
<path fill-rule="evenodd" clip-rule="evenodd" d="M210.776 41.625C210.776 41.2552 210.766 40.8906 210.755 40.526C210.75 40.3281 210.74 40.1302 210.734 39.9271C209.651 18.5156 191.943 1.5 170.26 1.5C148.62 1.5 130.932 18.4688 129.797 39.8333C129.755 40.5573 129.74 41.276 129.74 42.0104V42.0156H138.568V41.8385C138.661 24.4167 152.818 10.3177 170.26 10.3177C187.729 10.3177 201.896 24.4531 201.958 41.901V42.0156H210.781V41.901C210.781 41.8073 210.781 41.7135 210.776 41.625Z" fill="black"/>
</g>
<path d="M215.149 251.335C211.774 251.335 208.487 250.918 205.295 250.085C202.112 249.252 199.524 248.137 197.524 246.731L201.42 238.022C203.279 239.246 205.446 240.241 207.92 241.002C210.388 241.752 212.821 242.127 215.211 242.127C219.753 242.127 222.024 240.996 222.024 238.731C222.024 237.538 221.378 236.658 220.086 236.085C218.795 235.502 216.711 234.892 213.836 234.252C210.696 233.575 208.071 232.845 205.961 232.064C203.847 231.288 202.034 230.043 200.524 228.335C199.008 226.627 198.253 224.314 198.253 221.397C198.253 218.856 198.946 216.559 200.336 214.502C201.722 212.45 203.8 210.825 206.565 209.627C209.342 208.434 212.743 207.835 216.774 207.835C219.524 207.835 222.232 208.147 224.899 208.772C227.565 209.387 229.909 210.288 231.94 211.481L228.295 220.272C224.305 218.121 220.446 217.043 216.711 217.043C214.362 217.043 212.649 217.392 211.565 218.085C210.493 218.783 209.961 219.689 209.961 220.814C209.961 221.929 210.592 222.762 211.857 223.314C213.133 223.871 215.19 224.45 218.024 225.043C221.201 225.726 223.842 226.455 225.94 227.231C228.034 228.012 229.847 229.246 231.378 230.939C232.904 232.637 233.67 234.934 233.67 237.835C233.67 240.351 232.972 242.621 231.586 244.647C230.196 246.679 228.107 248.304 225.315 249.522C222.524 250.731 219.133 251.335 215.149 251.335Z" fill="black"/>
<path d="M256.129 217.585C260.155 217.585 263.39 218.783 265.837 221.168C268.296 223.559 269.525 227.163 269.525 231.981V250.502H258.171V233.835C258.171 229.408 256.4 227.189 252.858 227.189C250.9 227.189 249.327 227.83 248.15 229.106C246.983 230.387 246.4 232.304 246.4 234.856V250.502H235.046V206.168H246.4V221.106C247.634 219.955 249.087 219.08 250.754 218.481C252.431 217.887 254.223 217.585 256.129 217.585Z" fill="black"/>
<path d="M289.349 251.043C285.891 251.043 282.766 250.33 279.974 248.897C277.182 247.455 274.995 245.46 273.412 242.918C271.839 240.366 271.057 237.476 271.057 234.252C271.057 231.059 271.839 228.189 273.412 225.647C274.995 223.095 277.167 221.116 279.932 219.71C282.709 218.293 285.849 217.585 289.349 217.585C292.849 217.585 295.995 218.293 298.787 219.71C301.578 221.116 303.75 223.085 305.307 225.627C306.86 228.158 307.641 231.033 307.641 234.252C307.641 237.476 306.86 240.366 305.307 242.918C303.75 245.46 301.578 247.455 298.787 248.897C295.995 250.33 292.849 251.043 289.349 251.043ZM289.349 242.022C291.334 242.022 292.964 241.335 294.245 239.96C295.521 238.585 296.162 236.684 296.162 234.252C296.162 231.866 295.521 229.996 294.245 228.647C292.964 227.288 291.334 226.606 289.349 226.606C287.36 226.606 285.729 227.288 284.453 228.647C283.172 229.996 282.537 231.866 282.537 234.252C282.537 236.684 283.172 238.585 284.453 239.96C285.729 241.335 287.36 242.022 289.349 242.022Z" fill="black"/>
<path d="M329.735 217.585C332.678 217.585 335.35 218.272 337.756 219.647C340.173 221.022 342.09 222.976 343.506 225.502C344.923 228.033 345.631 230.97 345.631 234.314C345.631 237.663 344.923 240.601 343.506 243.127C342.09 245.658 340.173 247.606 337.756 248.981C335.35 250.356 332.678 251.043 329.735 251.043C325.944 251.043 322.933 249.908 320.715 247.627V262.085H309.36V218.127H320.173V221.335C322.282 218.835 325.47 217.585 329.735 217.585ZM327.34 242.022C329.34 242.022 330.97 241.335 332.235 239.96C333.512 238.585 334.152 236.705 334.152 234.314C334.152 231.929 333.512 230.043 332.235 228.668C330.97 227.293 329.34 226.606 327.34 226.606C325.35 226.606 323.72 227.293 322.444 228.668C321.163 230.043 320.527 231.929 320.527 234.314C320.527 236.705 321.163 238.585 322.444 239.96C323.72 241.335 325.35 242.022 327.34 242.022Z" fill="black"/>
<path d="M24.0652 251.335C19.6486 251.335 15.6746 250.408 12.1486 248.543C8.61731 246.668 5.84648 244.08 3.83606 240.772C1.83606 237.455 0.83606 233.726 0.83606 229.585C0.83606 225.45 1.83606 221.726 3.83606 218.418C5.84648 215.116 8.61731 212.522 12.1486 210.647C15.6746 208.772 19.6486 207.835 24.0652 207.835C28.4923 207.835 32.4663 208.772 35.9819 210.647C39.5079 212.522 42.2788 215.116 44.2944 218.418C46.3048 221.726 47.3152 225.45 47.3152 229.585C47.3152 233.726 46.3048 237.455 44.2944 240.772C42.2788 244.08 39.5079 246.668 35.9819 248.543C32.4663 250.408 28.4923 251.335 24.0652 251.335ZM24.0652 241.543C26.1746 241.543 28.0861 241.043 29.7944 240.043C31.5131 239.043 32.8673 237.642 33.8569 235.835C34.8569 234.017 35.3569 231.934 35.3569 229.585C35.3569 227.241 34.8569 225.163 33.8569 223.356C32.8673 221.538 31.5131 220.137 29.7944 219.147C28.0861 218.147 26.1746 217.647 24.0652 217.647C21.9506 217.647 20.0444 218.147 18.3361 219.147C16.6277 220.137 15.2736 221.538 14.2736 223.356C13.2736 225.163 12.7736 227.241 12.7736 229.585C12.7736 231.934 13.2736 234.017 14.2736 235.835C15.2736 237.642 16.6277 239.043 18.3361 240.043C20.0444 241.043 21.9506 241.543 24.0652 241.543Z" fill="#FF6825" fill-opacity="0.4"/>
<path d="M70.5379 217.585C74.564 217.585 77.7983 218.783 80.2463 221.168C82.7046 223.559 83.9338 227.163 83.9338 231.981V250.502H72.5796V233.835C72.5796 229.408 70.8088 227.189 67.2671 227.189C65.3088 227.189 63.7358 227.83 62.5588 229.106C61.3921 230.387 60.8088 232.304 60.8088 234.856V250.502H49.4546V218.127H60.2671V221.647C61.5431 220.33 63.0588 219.325 64.8088 218.627C66.5588 217.934 68.465 217.585 70.5379 217.585Z" fill="#FF6825" fill-opacity="0.4"/>
<path d="M87.5079 206.168H98.8621V250.502H87.5079V206.168Z" fill="#FF6825" fill-opacity="0.4"/>
<path d="M102.681 218.127H114.035V250.502H102.681V218.127ZM108.369 214.522C106.285 214.522 104.603 213.95 103.327 212.793C102.061 211.642 101.431 210.21 101.431 208.502C101.431 206.783 102.061 205.345 103.327 204.189C104.603 203.038 106.285 202.46 108.369 202.46C110.436 202.46 112.103 203.012 113.369 204.106C114.645 205.205 115.285 206.606 115.285 208.314C115.285 210.106 114.645 211.595 113.369 212.772C112.103 213.939 110.436 214.522 108.369 214.522Z" fill="#FF6825" fill-opacity="0.4"/>
<path d="M138.938 217.585C142.964 217.585 146.198 218.783 148.646 221.168C151.104 223.559 152.334 227.163 152.334 231.981V250.502H140.979V233.835C140.979 229.408 139.209 227.189 135.667 227.189C133.709 227.189 132.136 227.83 130.959 229.106C129.792 230.387 129.209 232.304 129.209 234.856V250.502H117.854V218.127H128.667V221.647C129.943 220.33 131.459 219.325 133.209 218.627C134.959 217.934 136.865 217.585 138.938 217.585Z" fill="#FF6825" fill-opacity="0.4"/>
<path d="M189.012 234.377C189.012 234.45 188.949 235.377 188.824 237.168H165.283C165.767 238.851 166.699 240.142 168.074 241.043C169.449 241.934 171.168 242.377 173.241 242.377C174.793 242.377 176.137 242.163 177.262 241.731C178.397 241.288 179.543 240.564 180.699 239.564L186.679 245.772C183.522 249.288 178.918 251.043 172.866 251.043C169.085 251.043 165.762 250.33 162.887 248.897C160.022 247.455 157.804 245.46 156.22 242.918C154.647 240.366 153.866 237.476 153.866 234.252C153.866 231.059 154.627 228.2 156.158 225.668C157.699 223.142 159.824 221.163 162.533 219.731C165.241 218.304 168.288 217.585 171.679 217.585C174.897 217.585 177.824 218.252 180.449 219.585C183.085 220.918 185.168 222.851 186.699 225.377C188.241 227.908 189.012 230.908 189.012 234.377ZM171.741 225.647C169.991 225.647 168.522 226.147 167.345 227.147C166.179 228.137 165.434 229.491 165.116 231.21H178.366C178.043 229.491 177.293 228.137 176.116 227.147C174.949 226.147 173.491 225.647 171.741 225.647Z" fill="#FF6825" fill-opacity="0.4"/>
<path d="M24.0652 251.335C19.6486 251.335 15.6746 250.408 12.1486 248.543C8.61731 246.668 5.84648 244.08 3.83606 240.772C1.83606 237.455 0.83606 233.726 0.83606 229.585C0.83606 225.45 1.83606 221.726 3.83606 218.418C5.84648 215.116 8.61731 212.522 12.1486 210.647C15.6746 208.772 19.6486 207.835 24.0652 207.835C28.4923 207.835 32.4663 208.772 35.9819 210.647C39.5079 212.522 42.2788 215.116 44.2944 218.418C46.3048 221.726 47.3152 225.45 47.3152 229.585C47.3152 233.726 46.3048 237.455 44.2944 240.772C42.2788 244.08 39.5079 246.668 35.9819 248.543C32.4663 250.408 28.4923 251.335 24.0652 251.335ZM24.0652 241.543C26.1746 241.543 28.0861 241.043 29.7944 240.043C31.5131 239.043 32.8673 237.642 33.8569 235.835C34.8569 234.017 35.3569 231.934 35.3569 229.585C35.3569 227.241 34.8569 225.163 33.8569 223.356C32.8673 221.538 31.5131 220.137 29.7944 219.147C28.0861 218.147 26.1746 217.647 24.0652 217.647C21.9506 217.647 20.0444 218.147 18.3361 219.147C16.6277 220.137 15.2736 221.538 14.2736 223.356C13.2736 225.163 12.7736 227.241 12.7736 229.585C12.7736 231.934 13.2736 234.017 14.2736 235.835C15.2736 237.642 16.6277 239.043 18.3361 240.043C20.0444 241.043 21.9506 241.543 24.0652 241.543Z" fill="black"/>
<path d="M70.5379 217.585C74.564 217.585 77.7983 218.783 80.2463 221.168C82.7046 223.559 83.9338 227.163 83.9338 231.981V250.502H72.5796V233.835C72.5796 229.408 70.8088 227.189 67.2671 227.189C65.3088 227.189 63.7358 227.83 62.5588 229.106C61.3921 230.387 60.8088 232.304 60.8088 234.856V250.502H49.4546V218.127H60.2671V221.647C61.5431 220.33 63.0588 219.325 64.8088 218.627C66.5588 217.934 68.465 217.585 70.5379 217.585Z" fill="black"/>
<path d="M87.5079 206.168H98.8621V250.502H87.5079V206.168Z" fill="black"/>
<path d="M102.681 218.127H114.035V250.502H102.681V218.127ZM108.369 214.522C106.285 214.522 104.603 213.95 103.327 212.793C102.061 211.642 101.431 210.21 101.431 208.502C101.431 206.783 102.061 205.345 103.327 204.189C104.603 203.038 106.285 202.46 108.369 202.46C110.436 202.46 112.103 203.012 113.369 204.106C114.645 205.205 115.285 206.606 115.285 208.314C115.285 210.106 114.645 211.595 113.369 212.772C112.103 213.939 110.436 214.522 108.369 214.522Z" fill="black"/>
<path d="M138.938 217.585C142.964 217.585 146.198 218.783 148.646 221.168C151.104 223.559 152.334 227.163 152.334 231.981V250.502H140.979V233.835C140.979 229.408 139.209 227.189 135.667 227.189C133.709 227.189 132.136 227.83 130.959 229.106C129.792 230.387 129.209 232.304 129.209 234.856V250.502H117.854V218.127H128.667V221.647C129.943 220.33 131.459 219.325 133.209 218.627C134.959 217.934 136.865 217.585 138.938 217.585Z" fill="black"/>
<path d="M189.012 234.377C189.012 234.45 188.949 235.377 188.824 237.168H165.283C165.767 238.851 166.699 240.142 168.074 241.043C169.449 241.934 171.168 242.377 173.241 242.377C174.793 242.377 176.137 242.163 177.262 241.731C178.397 241.288 179.543 240.564 180.699 239.564L186.679 245.772C183.522 249.288 178.918 251.043 172.866 251.043C169.085 251.043 165.762 250.33 162.887 248.897C160.022 247.455 157.804 245.46 156.22 242.918C154.647 240.366 153.866 237.476 153.866 234.252C153.866 231.059 154.627 228.2 156.158 225.668C157.699 223.142 159.824 221.163 162.533 219.731C165.241 218.304 168.288 217.585 171.679 217.585C174.897 217.585 177.824 218.252 180.449 219.585C183.085 220.918 185.168 222.851 186.699 225.377C188.241 227.908 189.012 230.908 189.012 234.377ZM171.741 225.647C169.991 225.647 168.522 226.147 167.345 227.147C166.179 228.137 165.434 229.491 165.116 231.21H178.366C178.043 229.491 177.293 228.137 176.116 227.147C174.949 226.147 173.491 225.647 171.741 225.647Z" fill="black"/>
<path d="M103.29 280.097V281.681H94.0192V268.91H103.04V270.493H95.8525V274.41H102.248V275.972H95.8525V280.097H103.29Z" fill="#1F2540"/>
<path d="M107.817 275.91H112.734V277.431H107.817V275.91Z" fill="#1F2540"/>
<path d="M123.836 281.827C122.555 281.827 121.404 281.551 120.378 280.993C119.346 280.426 118.544 279.65 117.961 278.66C117.378 277.66 117.086 276.535 117.086 275.285C117.086 274.051 117.378 272.941 117.961 271.952C118.544 270.952 119.346 270.176 120.378 269.618C121.419 269.051 122.576 268.764 123.857 268.764C124.857 268.764 125.763 268.931 126.586 269.264C127.419 269.597 128.128 270.092 128.711 270.743L127.523 271.889C126.565 270.889 125.367 270.389 123.94 270.389C122.982 270.389 122.117 270.608 121.357 271.035C120.591 271.452 119.992 272.035 119.565 272.785C119.133 273.535 118.919 274.368 118.919 275.285C118.919 276.217 119.133 277.056 119.565 277.806C119.992 278.556 120.591 279.15 121.357 279.577C122.117 279.993 122.982 280.202 123.94 280.202C125.357 280.202 126.549 279.691 127.523 278.66L128.711 279.827C128.128 280.483 127.419 280.983 126.586 281.327C125.753 281.66 124.836 281.827 123.836 281.827Z" fill="#1F2540"/>
<path d="M139.538 281.827C138.247 281.827 137.08 281.551 136.038 280.993C135.007 280.426 134.194 279.639 133.601 278.639C133.017 277.639 132.726 276.525 132.726 275.285C132.726 274.066 133.017 272.952 133.601 271.952C134.194 270.952 135.007 270.176 136.038 269.618C137.08 269.051 138.247 268.764 139.538 268.764C140.814 268.764 141.965 269.051 142.997 269.618C144.038 270.176 144.851 270.952 145.434 271.952C146.017 272.941 146.309 274.051 146.309 275.285C146.309 276.535 146.017 277.66 145.434 278.66C144.851 279.65 144.038 280.426 142.997 280.993C141.965 281.551 140.814 281.827 139.538 281.827ZM139.538 280.202C140.465 280.202 141.309 279.993 142.059 279.577C142.809 279.15 143.398 278.556 143.83 277.806C144.257 277.056 144.476 276.217 144.476 275.285C144.476 274.368 144.257 273.535 143.83 272.785C143.398 272.035 142.809 271.452 142.059 271.035C141.309 270.608 140.465 270.389 139.538 270.389C138.59 270.389 137.736 270.608 136.976 271.035C136.226 271.452 135.632 272.035 135.205 272.785C134.773 273.535 134.559 274.368 134.559 275.285C134.559 276.217 134.773 277.056 135.205 277.806C135.632 278.556 136.226 279.15 136.976 279.577C137.736 279.993 138.59 280.202 139.538 280.202Z" fill="#1F2540"/>
<path d="M163.396 281.681L163.376 272.368L158.751 280.139H157.917L153.292 272.431V281.681H151.542V268.91H153.042L158.376 277.889L163.626 268.91H165.126L165.146 281.681H163.396Z" fill="#1F2540"/>
<path d="M183.27 281.681L183.249 272.368L178.624 280.139H177.791L173.166 272.431V281.681H171.416V268.91H172.916L178.249 277.889L183.499 268.91H184.999L185.02 281.681H183.27Z" fill="#1F2540"/>
<path d="M200.56 280.097V281.681H191.289V268.91H200.31V270.493H193.122V274.41H199.518V275.972H193.122V280.097H200.56Z" fill="#1F2540"/>
<path d="M214.503 281.681L211.753 277.764C211.404 277.78 211.134 277.785 210.941 277.785H207.795V281.681H205.962V268.91H210.941C212.592 268.91 213.889 269.306 214.837 270.097C215.795 270.889 216.274 271.983 216.274 273.368C216.274 274.342 216.029 275.176 215.545 275.868C215.055 276.566 214.363 277.071 213.462 277.389L216.483 281.681H214.503ZM210.899 276.243C212.05 276.243 212.925 275.993 213.524 275.493C214.134 274.993 214.441 274.285 214.441 273.368C214.441 272.441 214.134 271.733 213.524 271.243C212.925 270.743 212.05 270.493 210.899 270.493H207.795V276.243H210.899Z" fill="#1F2540"/>
<path d="M227.383 281.827C226.102 281.827 224.951 281.551 223.924 280.993C222.893 280.426 222.091 279.65 221.508 278.66C220.924 277.66 220.633 276.535 220.633 275.285C220.633 274.051 220.924 272.941 221.508 271.952C222.091 270.952 222.893 270.176 223.924 269.618C224.966 269.051 226.122 268.764 227.404 268.764C228.404 268.764 229.31 268.931 230.133 269.264C230.966 269.597 231.674 270.092 232.258 270.743L231.07 271.889C230.112 270.889 228.914 270.389 227.487 270.389C226.529 270.389 225.664 270.608 224.904 271.035C224.138 271.452 223.539 272.035 223.112 272.785C222.68 273.535 222.466 274.368 222.466 275.285C222.466 276.217 222.68 277.056 223.112 277.806C223.539 278.556 224.138 279.15 224.904 279.577C225.664 279.993 226.529 280.202 227.487 280.202C228.904 280.202 230.096 279.691 231.07 278.66L232.258 279.827C231.674 280.483 230.966 280.983 230.133 281.327C229.299 281.66 228.383 281.827 227.383 281.827Z" fill="#1F2540"/>
<path d="M246.585 280.097V281.681H237.314V268.91H246.335V270.493H239.148V274.41H245.543V275.972H239.148V280.097H246.585Z" fill="#1F2540"/>
</svg>
